<svg width="113" height="72" viewBox="0 0 113 72" fill="none" xmlns="http://www.w3.org/2000/svg">
<path d="M10.6463 78.2568C4.20725 71.4211 0.75 63.7499 0.75 51.3143C0.75 29.4428 16.1032 9.83527 38.4412 0.144775L44.0205 8.75484C23.1752 20.0336 19.1011 34.6624 17.4727 43.8874C20.8289 42.1518 25.2224 41.5411 29.5294 41.9405C40.8067 42.9861 49.695 52.2436 49.695 63.7499C49.695 75.8311 39.901 85.6249 27.8197 85.6249C21.1131 85.6249 14.6997 82.5593 10.6463 78.2568ZM73.1462 78.2568C66.7075 71.4211 63.25 63.7499 63.25 51.3143C63.25 29.4428 78.6031 9.83527 100.941 0.144775L106.521 8.75484C85.675 20.0336 81.6012 34.6624 79.9725 43.8874C83.3287 42.1518 87.7225 41.5411 92.0294 41.9405C103.307 42.9861 112.195 52.2436 112.195 63.7499C112.195 75.8311 102.401 85.6249 90.32 85.6249C83.6131 85.6249 77.2 82.5593 73.1462 78.2568Z" fill="white"/>
</svg>
