<svg width="24" height="25" viewBox="0 0 24 25" fill="none" xmlns="http://www.w3.org/2000/svg">
<path d="M9 6.5H15C15 4.84315 13.6569 3.5 12 3.5C10.3431 3.5 9 4.84315 9 6.5ZM7 6.5C7 3.73858 9.23858 1.5 12 1.5C14.7614 1.5 17 3.73858 17 6.5H20C20.5523 6.5 21 6.94772 21 7.5V21.5C21 22.0523 20.5523 22.5 20 22.5H4C3.44772 22.5 3 22.0523 3 21.5V7.5C3 6.94772 3.44772 6.5 4 6.5H7ZM5 8.5V20.5H19V8.5H5ZM9 10.5C9 12.1569 10.3431 13.5 12 13.5C13.6569 13.5 15 12.1569 15 10.5H17C17 13.2614 14.7614 15.5 12 15.5C9.23858 15.5 7 13.2614 7 10.5H9Z" fill="#3D3D3D"/>
</svg>
