<svg width="22" height="20" viewBox="0 0 22 20" fill="none" xmlns="http://www.w3.org/2000/svg">
<g clip-path="url(#clip0_52_1440)">
<path d="M20.4341 0.983897L1.16865 8.41463C-0.146251 8.9422 -0.138452 9.67559 0.928979 10.0026L5.73385 11.5023L7.5723 17.1389C7.79581 17.7558 7.68563 18.0005 8.33346 18.0005C8.83341 18.0005 9.05519 17.7725 9.33364 17.5005C9.51071 17.3273 10.562 16.3051 11.7359 15.1638L16.7339 18.8565C17.6536 19.3639 18.3177 19.101 18.5467 18.0023L21.8274 2.54205C22.1633 1.19538 21.3141 0.584541 20.4341 0.983897ZM6.48792 11.1578L17.3181 4.32491C17.8588 3.99703 18.3545 4.17331 17.9475 4.53461L8.67401 12.9016L8.31293 16.7528L6.48792 11.1578Z" fill="#8F8F8F"/>
</g>
<defs>
<clipPath id="clip0_52_1440">
<rect width="22" height="19" fill="white" transform="translate(0 0.5)"/>
</clipPath>
</defs>
</svg>
